# xmcd CD database file
#
# Track frame offsets:
#	150
#	21002
#	23247
#	45735
#	63182
#	71515
#	84725
#	90140
#	106077
#	115190
#	123850
#	138047
#	157310
#	171327
#	185597
#	207722
#	228237
#	235267
#	259822
#	261222
#
# Disc length: 3619 seconds
#
# Revision: 1
# Processed by: cddbd v1.5.1PL2 Copyright (c) Steve Scherf et al.
# Submitted via: CDex 1.51
#
DISCID=0e0e2114
DTITLE=James Jamerson (music of ) - Standing In The Shadows Of Motown [Disc 2]
DYEAR=1989
DGENRE=Soul
TTITLE0=John Patitucci
TTITLE1=Gene Page
TTITLE2=Jimmy Haslip
TTITLE3=Bob Babbitt
TTITLE4=Robert White
TTITLE5=Willie Weeks
TTITLE6=Eddie Holland
TTITLE7=Dave Hungate
TTITLE8=Earl Van Dyke
TTITLE9=Francis Rocco Prestia
TTITLE10=Jake Bruce
TTITLE11=Kenny Aaronson
TTITLE12=Marcus Miller
TTITLE13=Nathan Watts
TTITLE14=Non-Motown Medley
TTITLE15=Basil Fearrington
TTITLE16=Smokey Robinson
TTITLE17=Anthony Jackson
TTITLE18=Brian Holland
TTITLE19=Stevie Wonder
EXTD=YEAR: 1989
EXTT0=
EXTT1=
EXTT2=
EXTT3=
EXTT4=
EXTT5=
EXTT6=
EXTT7=
EXTT8=
EXTT9=
EXTT10=
EXTT11=
EXTT12=
EXTT13=
EXTT14=
EXTT15=
EXTT16=
EXTT17=
EXTT18=
EXTT19=
PLAYORDER=
